<svg width="24" height="24" viewBox="0 0 24 24">
<path d="M22.2283 0H1.77166C1.30179 0 0.85116 0.186657 0.51891 0.51891C0.186657 0.85116 0 1.30179 0 1.77166V22.2283C0 22.6982 0.186657 23.1489 0.51891 23.4811C0.85116 23.8134 1.30179 24 1.77166 24H22.2283C22.6982 24 23.1489 23.8134 23.4811 23.4811C23.8134 23.1489 24 22.6982 24 22.2283V1.77166C24 1.30179 23.8134 0.85116 23.4811 0.51891C23.1489 0.186657 22.6982 0 22.2283 0ZM7.15335 20.445H3.545V8.98335H7.15335V20.445ZM5.34665 7.395C4.93737 7.3927 4.53792 7.2692 4.19874 7.0401C3.85956 6.811 3.59584 6.48655 3.44088 6.1077C3.28592 5.72885 3.24665 5.3126 3.32803 4.91146C3.40942 4.51032 3.6078 4.14228 3.89815 3.85378C4.18851 3.56529 4.55782 3.36927 4.95947 3.29046C5.3611 3.21166 5.7771 3.25359 6.15495 3.41098C6.5328 3.56837 6.85555 3.83416 7.08245 4.17481C7.3094 4.51546 7.4303 4.91569 7.43 5.325C7.43385 5.59905 7.3825 5.87105 7.279 6.1248C7.1755 6.37855 7.022 6.6089 6.82755 6.80205C6.63315 6.99525 6.40185 7.1473 6.1474 7.24915C5.893 7.351 5.62065 7.4006 5.34665 7.395ZM20.4534 20.455H16.8466V14.1933C16.8466 12.3466 16.0617 11.7767 15.0484 11.7767C13.9784 11.7767 12.9284 12.5833 12.9284 14.24V20.455H9.32V8.99165H12.79V10.58H12.8366C13.185 9.875 14.405 8.67 16.2666 8.67C18.28 8.67 20.455 9.865 20.455 13.365L20.4534 20.455Z"/>
</svg>
